<?xml version="1.0" encoding="UTF-8"?>
<svg id="Layer_2" data-name="Layer 2" xmlns="http://www.w3.org/2000/svg" viewBox="0 0 572.39321 60">
  <defs>
    <style>
      .cls-1 {
        isolation: isolate;
      }

      .cls-2 {
        fill: #6b6a6a;
      }

      .cls-3 {
        fill: #e30427;
      }
    </style>
  </defs>
  <g id="Layer_1-2" data-name="Layer 1">
    <g id="NEW_TEMPLATE_PRODUCT" data-name="NEW TEMPLATE PRODUCT">
      <g>
        <path class="cls-3" d="M5.3999,0C2.4176,0,0,2.41772,0,5.3999h0c.00574,2.28345,1.44714,4.31641,3.59998,5.07764v13.52222c-.00012.99414.80579,1.80029,1.80005,1.80029.18787,0,.37451-.0293.55322-.08716l13.76843-4.44141c1.01758,1.33618,2.599,2.1228,4.27844,2.12817,2.9823,0,5.3999-2.41772,5.3999-5.3999v-.00024c0-2.98218-2.4176-5.3999-5.3999-5.3999-2.91931.00439-5.30664,2.32837-5.3894,5.24658l-11.41052,3.68091v-11.04956c2.15295-.76123,3.59436-2.79419,3.59998-5.07764,0-2.98218-2.4176-5.3999-5.3999-5.3999h-.00049.00012Z"/>
        <path class="cls-3" d="M42.599,59.99927c2.9823,0,5.3999-2.41772,5.3999-5.3999h0c-.00574-2.28345-1.44714-4.31641-3.59998-5.07764v-13.52222c.00012-.99414-.80579-1.80029-1.80005-1.80029-.18787,0-.37451.0293-.55322.08716l-13.76843,4.44141c-1.01758-1.33618-2.599-2.1228-4.27844-2.12817-2.9823-.00024-5.40002,2.41748-5.40015,5.39966v.00024c-.00012,2.98218,2.41736,5.3999,5.39966,5.40015h.00049c2.91931-.00439,5.30664-2.32837,5.3894-5.24658l11.41052-3.68091v11.04956c-2.15295.76123-3.59436,2.79419-3.59998,5.07764,0,2.98218,2.4176,5.3999,5.3999,5.3999h.00049-.00012Z"/>
        <path class="cls-2" d="M42.599,0c-2.9823,0-5.3999,2.41772-5.3999,5.3999h0c.00183,2.28735,1.44446,4.3252,3.60107,5.08716v12.20386L4.84558,34.28564c-.7428.24097-1.24548.93359-1.24451,1.71436v13.51294C1.44446,50.2749.00183,52.31274,0,54.6001c0,2.98218,2.4176,5.3999,5.3999,5.3999h0c2.9823,0,5.3999-2.41772,5.3999-5.3999h0c-.00037-2.28711-1.44165-4.32617-3.59778-5.08936v-12.19922l35.95007-11.60034c.74304-.23877,1.24744-.9292,1.24927-1.70972v-13.51514c2.15491-.76294,3.59595-2.80005,3.59778-5.08594C47.99915,2.41821,45.58154.00049,42.59924.00049h0l-.00012-.00049h-.00012Z"/>
      </g>
      <g>
        <path class="cls-3" d="M70.70801,38.92456c-.38135-.35059-.57178-.79785-.57178-1.33984v-17.0957c0-.56152.19043-1.0127.57178-1.35449.38086-.34082.90283-.51172,1.56494-.51172.52148,0,.95801.17578,1.30957.52637.35059.35156.52637.79785.52637,1.33984v6.56152h9.8125v-6.56152c0-.52148.2002-.96289.60205-1.32422.40088-.36133.88232-.54199,1.44434-.54199.52197,0,.96338.17578,1.32471.52637.36084.35156.5415.79785.5415,1.33984v17.0957c0,.52246-.18066.96387-.5415,1.32422-.36133.36133-.80273.54199-1.32471.54199-.5415,0-1.01855-.18066-1.42969-.54199-.41113-.36035-.6167-.80176-.6167-1.32422v-6.59082h-9.8125v6.59082c0,.52246-.17578.96387-.52637,1.32422-.35156.36133-.78809.54199-1.30957.54199-.66211,0-1.18408-.1748-1.56494-.52637Z"/>
        <path class="cls-3" d="M97.43506,39.51147c-.3208,0-.56201-.02051-.72217-.06055-.36133-.2002-.65234-.46582-.87305-.79785-.2207-.33105-.33105-.69629-.33105-1.09766,0-.3418.08008-.67285.24072-.99414l8.63867-16.88477c.2002-.40137.47119-.70801.8125-.91797.34082-.21094.70215-.31641,1.0835-.31641.38086,0,.7373.10547,1.06836.31641.33154.20996.5874.5166.76758.91797l8.48779,16.88477c.16064.30176.24121.62305.24121.96387,0,.56152-.21582,1.0332-.64746,1.41406-.43164.38184-.91797.57227-1.45947.57227-.3418,0-.65234-.09082-.93311-.27051-.28125-.18066-.51172-.45215-.69238-.81348l-1.32422-2.64844h-11.10645l-1.29443,2.64844c-.34131.72266-.99316,1.08398-1.95654,1.08398ZM106.25439,24.37183l-3.70215,7.43457h7.10303l-3.40088-7.43457Z"/>
        <path class="cls-3" d="M127.8501,38.96948c-.41162.36133-.88818.54199-1.42969.54199-.54199,0-1.00391-.16992-1.38477-.51172-.38135-.34082-.57178-.82227-.57178-1.44434v-17.09668c0-.52148.17529-.95801.52686-1.30957.35059-.35059.77734-.52637,1.27881-.52637h8.00635c1.4043,0,2.62354.32129,3.65723.96289,1.0332.64258,1.81592,1.48535,2.34766,2.52832.53125,1.04395.79736,2.14746.79736,3.31152,0,1.30469-.33594,2.49805-1.0083,3.58105-.67236,1.08398-1.66016,1.88672-2.96436,2.4082l4.00293,4.87598c.28076.42188.42139.85352.42139,1.29395,0,.54199-.1958.99902-.58691,1.37012s-.85791.55664-1.39941.55664c-.70264,0-1.30469-.32129-1.80615-.96289l-4.54492-6.50195h-4.72559v5.44824c0,.62207-.20557,1.11328-.6167,1.47461ZM134.27588,28.58569c.94287,0,1.68555-.32129,2.22754-.96289.5415-.64258.8125-1.39453.8125-2.25781,0-.84277-.26611-1.57031-.79736-2.18262-.53223-.61133-1.2793-.91797-2.24268-.91797h-5.80908v6.32129h5.80908Z"/>
        <path class="cls-3" d="M150.54443,38.98511c-.41162-.31152-.61719-.77832-.61719-1.40039v-17.0957c0-.52148.21533-.96289.64697-1.32422.43115-.36133.90771-.54199,1.42969-.54199h6.89258c2.18701,0,4.05322.49219,5.59863,1.47461,1.54492.9834,2.70361,2.26758,3.47607,3.85254.77246,1.58594,1.15918,3.28125,1.15918,5.08691s-.38135,3.50195-1.14404,5.08691-1.896,2.87012-3.40088,3.85254c-1.50488.9834-3.31104,1.47461-5.41797,1.47461h-7.16357c-.56201,0-1.04883-.15527-1.45947-.46582ZM153.90039,35.77905h4.99609c1.3042,0,2.42773-.32617,3.37109-.97852.94287-.65137,1.65576-1.49902,2.13721-2.54297.48145-1.04297.72217-2.15723.72217-3.34082,0-1.14355-.23584-2.22266-.70703-3.23535-.47168-1.01367-1.1792-1.83105-2.12207-2.45312-.94336-.62207-2.07666-.93359-3.40137-.93359h-4.99609v13.48438Z"/>
        <path class="cls-3" d="M198.80713,32.25757l4.48486-12.40039c.18018-.44141.43115-.77734.75244-1.00879.32031-.23047.68164-.3457,1.0835-.3457.52148,0,.97803.17578,1.36914.52637.3916.35156.58691.79785.58691,1.33984,0,.24023-.05029.51172-.15039.8125l-5.95947,16.16309c-.26074.84277-.5415,1.4248-.84277,1.74512-.30078.32129-.7124.48242-1.23389.48242-.48145,0-.84814-.12598-1.09863-.37695-.25098-.25-.55713-.70703-.91797-1.36914l-5.2373-11.88867-4.99658,11.70801c-.30078.68262-.60693,1.18457-.91797,1.50488s-.71729.48145-1.21875.48145c-.50195,0-.9082-.16504-1.21924-.49609s-.59717-.84766-.85791-1.55078l-5.83887-16.40332c-.10059-.30078-.15039-.56152-.15039-.7832,0-.58105.2002-1.04297.60205-1.38379.40088-.34082.87256-.51172,1.41455-.51172.40088,0,.77197.11523,1.11328.3457.34131.23145.58203.56738.72266,1.00879l4.45459,12.40039,5.32764-12.40039c.18018-.44141.42578-.78711.7373-1.03906.31104-.25.63672-.37598.97803-.37598s.66211.11035.96338.33105c.30078.2207.5415.55273.72217.99316l5.32764,12.49121Z"/>
        <path class="cls-3" d="M213.79639,39.51147c-.3208,0-.56201-.02051-.72217-.06055-.36133-.2002-.65234-.46582-.87305-.79785-.2207-.33105-.33105-.69629-.33105-1.09766,0-.3418.08008-.67285.24072-.99414l8.63867-16.88477c.2002-.40137.47119-.70801.8125-.91797.34082-.21094.70215-.31641,1.0835-.31641.38086,0,.7373.10547,1.06836.31641.33154.20996.5874.5166.76758.91797l8.48779,16.88477c.16064.30176.24121.62305.24121.96387,0,.56152-.21582,1.0332-.64746,1.41406-.43164.38184-.91797.57227-1.45947.57227-.3418,0-.65234-.09082-.93311-.27051-.28125-.18066-.51172-.45215-.69238-.81348l-1.32422-2.64844h-11.10645l-1.29443,2.64844c-.34131.72266-.99316,1.08398-1.95654,1.08398ZM222.61572,24.37183l-3.70215,7.43457h7.10303l-3.40088-7.43457Z"/>
        <path class="cls-3" d="M244.21094,38.96948c-.41162.36133-.88818.54199-1.42969.54199-.54199,0-1.00391-.16992-1.38477-.51172-.38135-.34082-.57178-.82227-.57178-1.44434v-17.09668c0-.52148.17529-.95801.52686-1.30957.35059-.35059.77734-.52637,1.27881-.52637h8.00635c1.4043,0,2.62354.32129,3.65723.96289,1.0332.64258,1.81592,1.48535,2.34766,2.52832.53125,1.04395.79736,2.14746.79736,3.31152,0,1.30469-.33594,2.49805-1.0083,3.58105-.67236,1.08398-1.66016,1.88672-2.96436,2.4082l4.00293,4.87598c.28076.42188.42139.85352.42139,1.29395,0,.54199-.1958.99902-.58691,1.37012s-.85791.55664-1.39941.55664c-.70264,0-1.30469-.32129-1.80615-.96289l-4.54492-6.50195h-4.72559v5.44824c0,.62207-.20557,1.11328-.6167,1.47461ZM250.63672,28.58569c.94287,0,1.68555-.32129,2.22754-.96289.5415-.64258.8125-1.39453.8125-2.25781,0-.84277-.26611-1.57031-.79736-2.18262-.53223-.61133-1.2793-.91797-2.24268-.91797h-5.80908v6.32129h5.80908Z"/>
        <path class="cls-3" d="M266.49854,20.42847c0-.58105.20068-1.04297.60205-1.38379.40137-.3418.87305-.51172,1.41455-.51172.54199,0,1.00342.16504,1.38477.49609.38086.33105.57178.79785.57178,1.39941v17.18652c0,.60254-.19531,1.06836-.58691,1.39941-.39111.33105-.86816.49707-1.42969.49707-.52197,0-.97803-.16602-1.36963-.49707-.39111-.33105-.58691-.79688-.58691-1.39941v-17.18652Z"/>
        <path class="cls-3" d="M299.86279,34.77124c-1.03369,1.63574-2.37305,2.87402-4.01807,3.7168-1.64551.84277-3.38135,1.26367-5.20703,1.26367-1.92627.08008-3.75781-.28516-5.49316-1.09863-1.73584-.8125-3.14502-2.05078-4.22852-3.7168-1.08398-1.66504-1.62549-3.67188-1.62549-6.01953s.5415-4.35449,1.62549-6.01953c1.0835-1.66602,2.49268-2.91992,4.22852-3.7627,1.73535-.84277,3.56689-1.26367,5.49316-1.26367,1.8457.10059,3.5918.58203,5.2373,1.44434,1.64502.86328,2.97949,2.1123,4.00293,3.74707,1.02344,1.63574,1.53516,3.58691,1.53516,5.85449s-.51709,4.21875-1.55029,5.85449ZM296.43164,25.03394c-.69238-1.08398-1.58545-1.89648-2.67871-2.43848-1.09375-.54102-2.24219-.8125-3.44629-.8125-1.16406,0-2.2876.27148-3.37109.8125-1.0835.54199-1.9668,1.35449-2.64844,2.43848-.68262,1.08301-1.02344,2.37793-1.02344,3.88281s.34082,2.79395,1.02344,3.86719c.68164,1.07422,1.56494,1.88672,2.64844,2.43848s2.20703.82715,3.37109.82715c1.2041,0,2.35254-.27539,3.44629-.82715,1.09326-.55176,1.98633-1.36426,2.67871-2.43848.69238-1.07324,1.03857-2.3623,1.03857-3.86719s-.34619-2.7998-1.03857-3.88281Z"/>
      </g>
      <g class="cls-1">
        <path class="cls-2" d="M318.92079,20.55217c0-.99023.78027-2.07031,2.04004-2.07031h6.92969c3.90039,0,7.41016,2.61035,7.41016,7.62012,0,4.73926-3.50977,7.37988-7.41016,7.37988h-5.00977v3.95898c0,1.32031-.83984,2.07031-1.91992,2.07031-.99023,0-2.04004-.75-2.04004-2.07031v-16.88867ZM322.88075,22.26214v7.46973h5.00977c2.00977,0,3.59961-1.77051,3.59961-3.62988,0-2.10059-1.58984-3.83984-3.59961-3.83984h-5.00977Z"/>
        <path class="cls-2" d="M343.58095,20.55217c0-.99023.83984-1.83008,1.88965-1.83008.95996,0,1.77051.83984,1.77051,1.83008v15.0293h8.15918c2.94043,0,3,3.92969,0,3.92969h-9.92969c-1.0498,0-1.88965-.75-1.88965-1.83008v-17.12891Z"/>
        <path class="cls-2" d="M365.39052,39.51116c-.95996-.54004-1.55957-1.62012-.95996-2.87988l8.61035-16.8291c.80957-1.58984,2.96973-1.65039,3.71973,0l8.45996,16.8291c1.22949,2.33984-2.40039,4.2002-3.48047,1.86035l-1.31934-2.64062h-11.07031l-1.29004,2.64062c-.47949,1.01953-1.58984,1.22949-2.66992,1.01953ZM378.29091,31.89104l-3.39062-7.40918-3.68945,7.40918h7.08008Z"/>
        <path class="cls-2" d="M390.14052,21.57171c-1.61914-2.00977,1.77051-4.31934,3.36035-2.12988l5.51953,8.21973,5.61035-8.21973c1.58984-2.18945,4.85938,0,3.2998,2.00977l-7.02051,9.99023v6.17969c.27051,2.60938-3.95898,2.60938-3.95898,0v-6.17969l-6.81055-9.87012Z"/>
        <path class="cls-2" d="M433.10048,37.20159c-2.12988,1.76953-4.73926,2.51953-7.37988,2.51953-6.2998,0-10.76953-3.59961-10.76953-10.73926,0-6.05957,4.70996-10.76953,11.04004-10.76953,2.37012,0,4.97949.80957,6.83984,2.63965,1.8291,1.7998-.81055,4.46973-2.61035,2.87988-1.10938-1.08008-2.66992-1.88965-4.22949-1.88965-3.62988,0-7.13965,2.90918-7.13965,7.13965,0,4.43945,2.93945,7.13965,6.86914,7.13965,1.83008,0,3.39062-.54004,4.5-1.35059v-3.68945h-4.5c-2.66992,0-2.39941-3.66016,0-3.66016h6c1.11035,0,2.12988.83984,2.12988,1.77051v6.38965c0,.54004-.24023,1.0498-.75,1.62012Z"/>
        <path class="cls-2" d="M447.29091,37.56096c0,2.61035-3.98926,2.7002-3.98926.06055v-17.04004c0-1.0498.80957-1.8291,1.7998-1.8291h7.97949c7.61914,0,9.17969,10.19922,2.81934,12.74902l3.99023,4.86035c1.55957,2.30957-1.55957,4.5293-3.35938,2.24902l-4.53027-6.47949h-4.70996v5.42969ZM447.29091,28.68206h5.79004c3.89941,0,4.13965-6.2998,0-6.2998h-5.79004v6.2998Z"/>
        <path class="cls-2" d="M479.24013,39.81096c-5.5498.24023-11.30957-3.44922-11.30957-10.7998,0-7.37891,5.75977-11.00879,11.30957-11.00879,5.25.26953,10.73926,3.89941,10.73926,11.00879,0,7.11035-5.48926,10.7998-10.73926,10.7998ZM478.91005,21.90178c-3.35938,0-7.01953,2.37012-7.01953,7.10938,0,4.70996,3.66016,7.11035,7.01953,7.11035,3.4502,0,7.13965-2.40039,7.13965-7.11035,0-4.73926-3.68945-7.10938-7.13965-7.10938Z"/>
        <path class="cls-2" d="M512.87001,20.73186c0-2.66992,3.92969-2.87988,3.92969,0v10.85938c0,11.21973-18.08984,11.21973-18.08984,0v-10.85938c0-2.7002,3.92969-2.82031,3.92969,0v10.85938c0,5.91016,10.23047,6.26953,10.23047,0v-10.85938Z"/>
        <path class="cls-2" d="M526.10048,20.85198c0-1.08008.24023-2.12988,1.7998-2.12988,1.08008,0,1.32031.26953,2.12988,1.0498l9.92969,12.41992v-11.63965c0-.99023.87012-2.07031,1.88965-2.07031,1.08008,0,2.12988,1.08008,2.12988,2.07031v16.88867c0,1.32031-.80957,1.83008-1.58984,2.07031-1.0498,0-1.55957-.24023-2.42969-1.0498l-9.92969-12.59961v11.5791c0,1.32031-.80957,2.07031-1.88965,2.07031s-2.04004-.75-2.04004-2.07031v-16.58887Z"/>
        <path class="cls-2" d="M555.32021,39.51116c-.99023,0-2.07031-.54004-2.07031-1.86035v-17.03906c0-1.08008,1.08008-1.85938,2.07031-1.85938h6.86914c13.70996,0,13.41016,20.75879.27051,20.75879h-7.13965ZM557.20985,22.41155v13.43945h4.97949c8.09961,0,8.45996-13.43945,0-13.43945h-4.97949Z"/>
      </g>
    </g>
  </g>
</svg>