<svg xmlns="http://www.w3.org/2000/svg" viewBox="0 0 249 60.43"><defs><style>.cls-1{fill:#fff;}</style></defs><title>Asset 1</title><g id="Layer_2" data-name="Layer 2"><g id="Layer_1-2" data-name="Layer 1"><path class="cls-1" d="M4.1,54a2.29,2.29,0,0,1,2.25-2.28A2.24,2.24,0,0,1,8.4,53.06a2.22,2.22,0,0,1,.2.93,2.25,2.25,0,1,1-4.5,0M41,4.16a2.27,2.27,0,0,1,2.25,2.29,2.25,2.25,0,1,1-4.5,0A2.27,2.27,0,0,1,41,4.16M8.4,47.9v-10l33.23-11.3a2.08,2.08,0,0,0,1.4-2V12.54a6.35,6.35,0,1,0-4.1,0V23.12L5.7,34.42a2.07,2.07,0,0,0-1.4,2V47.9A6.45,6.45,0,0,0,6.35,60.43,6.45,6.45,0,0,0,8.4,47.9"/><path class="cls-1" d="M8.6,6.45a2.25,2.25,0,1,1-4.5,0,2.25,2.25,0,1,1,4.5,0m15.06,9.16a2.28,2.28,0,0,1,0,4.56h-.21a2.29,2.29,0,0,1-1.3-3.95,2.22,2.22,0,0,1,1.51-.6M4.3,12.54V23.78a2.1,2.1,0,0,0,.85,1.69,2,2,0,0,0,1.2.39A1.81,1.81,0,0,0,7,25.75L18.63,21.8a6.28,6.28,0,0,0,5,2.53,6.45,6.45,0,1,0-6.34-6.48l-8.92,3V12.54A6.46,6.46,0,0,0,6.35,0a6.46,6.46,0,0,0-2,12.54"/><path class="cls-1" d="M38.73,54a2.22,2.22,0,0,1,.2-.93,2.23,2.23,0,0,1,4.1,0,2.22,2.22,0,0,1,.2.93,2.25,2.25,0,1,1-4.5,0M23.67,45.4a2.28,2.28,0,0,1,0-4.56h.21a2.26,2.26,0,0,1,2,2.27,2.29,2.29,0,0,1-.73,1.68,2.22,2.22,0,0,1-1.51.6M43,47.9V37.23a2.1,2.1,0,0,0-.85-1.69,2,2,0,0,0-1.85-.29l-11.63,4a6.29,6.29,0,0,0-5-2.54A6.45,6.45,0,1,0,30,43.15l8.92-3V47.9a6.35,6.35,0,1,0,4.1,0"/><path class="cls-1" d="M77.59,20.85a2,2,0,0,0-1.39.47,1.49,1.49,0,0,0-.53,1.11v6.21H68.34V22.43a1.48,1.48,0,0,0-.51-1.1,1.85,1.85,0,0,0-1.32-.48,2,2,0,0,0-1.38.47,1.48,1.48,0,0,0-.55,1.11V38a1.48,1.48,0,0,0,.55,1.12,2,2,0,0,0,1.38.47,1.85,1.85,0,0,0,1.32-.48A1.48,1.48,0,0,0,68.34,38V32.15h7.33V38a1.51,1.51,0,0,0,.53,1.12,2,2,0,0,0,1.39.47,1.91,1.91,0,0,0,1.31-.47A1.51,1.51,0,0,0,79.43,38V22.43a1.46,1.46,0,0,0-.54-1.11,1.83,1.83,0,0,0-1.3-.47"/><path class="cls-1" d="M118.92,26.71v.52a1.7,1.7,0,0,1-.69,1.39,4.08,4.08,0,0,1-2.47.57h-3.17V24.47h3.17a3.89,3.89,0,0,1,2.46.6,2,2,0,0,1,.7,1.64m1,4.42A4.44,4.44,0,0,0,122,29.52a4.74,4.74,0,0,0,.68-2.57v-.19a6.63,6.63,0,0,0-.37-2.29,4.39,4.39,0,0,0-1.2-1.8,5.55,5.55,0,0,0-2.16-1.15,11.3,11.3,0,0,0-3.18-.4h-5a2,2,0,0,0-1.38.47,1.5,1.5,0,0,0-.54,1.12V37.94a1.62,1.62,0,0,0,.53,1.15,2.14,2.14,0,0,0,2.7.08,1.41,1.41,0,0,0,.52-1.09V32.43h4l3,6.44a1.51,1.51,0,0,0,1,.7,1.74,1.74,0,0,0,.45.06,2.15,2.15,0,0,0,.94-.24,2.25,2.25,0,0,0,1-1.1,1.22,1.22,0,0,0-.1-1.21Z"/><path class="cls-1" d="M140.05,28.61v3.63a3.5,3.5,0,0,1-1,2.67,3.85,3.85,0,0,1-2.73.92h-2.85V24.63h2.85a3.53,3.53,0,0,1,2.72,1,4.18,4.18,0,0,1,1,2.94m2-5.2a6.52,6.52,0,0,0-2.34-1.67,8.25,8.25,0,0,0-3.31-.62h-4.68a2,2,0,0,0-1.4.48,1.51,1.51,0,0,0-.52,1.11v15a1.51,1.51,0,0,0,.52,1.11,2,2,0,0,0,1.4.48h4.68a9,9,0,0,0,3.31-.57,6.24,6.24,0,0,0,3.71-4,9.58,9.58,0,0,0,.43-2.87V28.88a10.39,10.39,0,0,0-.43-3A6.75,6.75,0,0,0,142,23.41"/><path class="cls-1" d="M189.46,32.16h-4.13l2-6Zm.49-10s-.48-1.29-2.57-1.29-2.58,1.32-2.58,1.32l-5.32,15.27a1.51,1.51,0,0,0,.21,1.22,2,2,0,0,0,1.22.83,2.11,2.11,0,0,0,.54.07,1.86,1.86,0,0,0,.84-.2,1.67,1.67,0,0,0,.84-.92l1.05-3h6.43l1,3a1.51,1.51,0,0,0,.81.92,1.93,1.93,0,0,0,1.41.13,1.86,1.86,0,0,0,1.21-.83,1.52,1.52,0,0,0,.19-1.23Z"/><path class="cls-1" d="M212.15,26.71v.52a1.7,1.7,0,0,1-.69,1.39,4.06,4.06,0,0,1-2.46.57h-3.17V24.47H209a3.85,3.85,0,0,1,2.45.6,2,2,0,0,1,.7,1.64m1,4.42a4.34,4.34,0,0,0,2.08-1.61A4.65,4.65,0,0,0,215.9,27v-.19a6.88,6.88,0,0,0-.36-2.29,4.52,4.52,0,0,0-1.21-1.8,5.55,5.55,0,0,0-2.16-1.15,21.81,21.81,0,0,0-4.36-.4H204a2,2,0,0,0-1.37.47,1.48,1.48,0,0,0-.55,1.12V37.94a1.59,1.59,0,0,0,.54,1.15,1.88,1.88,0,0,0,1.38.52,2,2,0,0,0,1.32-.44,1.44,1.44,0,0,0,.52-1.09V32.43h4l3,6.44a1.54,1.54,0,0,0,1,.7,1.76,1.76,0,0,0,.46.06,2.07,2.07,0,0,0,.93-.24,2.2,2.2,0,0,0,1-1.1,1.22,1.22,0,0,0-.1-1.21Z"/><path class="cls-1" d="M224.9,20.85a2,2,0,0,0-1.39.47,1.49,1.49,0,0,0-.53,1.11V38a1.49,1.49,0,0,0,.53,1.12,2,2,0,0,0,1.39.48,1.92,1.92,0,0,0,1.31-.48,1.49,1.49,0,0,0,.53-1.12V22.43a1.49,1.49,0,0,0-.53-1.11,1.85,1.85,0,0,0-1.31-.47"/><path class="cls-1" d="M241.23,36.05a5.29,5.29,0,0,1-3.11-.87,4.06,4.06,0,0,1-.91-3V28.3a4,4,0,0,1,.91-3,6,6,0,0,1,6.24,0,4.14,4.14,0,0,1,.88,3v3.89a4.14,4.14,0,0,1-.88,3,5.25,5.25,0,0,1-3.13.87m7.35-10.66A6.44,6.44,0,0,0,247.26,23,6.25,6.25,0,0,0,245,21.42a12.75,12.75,0,0,0-7.54,0A6,6,0,0,0,235.24,23a6.42,6.42,0,0,0-1.31,2.38,9.75,9.75,0,0,0-.42,2.91v3.86a9.8,9.8,0,0,0,.42,2.91,6.42,6.42,0,0,0,1.31,2.38A6,6,0,0,0,237.47,39,12.75,12.75,0,0,0,245,39a6.25,6.25,0,0,0,2.25-1.59,6.44,6.44,0,0,0,1.32-2.38,9.8,9.8,0,0,0,.42-2.91V28.3a9.75,9.75,0,0,0-.42-2.91"/><path class="cls-1" d="M174.57,21.89a1.82,1.82,0,0,0-1-1,1.78,1.78,0,0,0-1.43.09,1.81,1.81,0,0,0-.94,1.07l-3.44,10-3.42-10a1.92,1.92,0,0,0-1.77-1.26,1.84,1.84,0,0,0-1.74,1.26l-3.45,10-3.44-10a1.92,1.92,0,0,0-1-1.08,1.75,1.75,0,0,0-1.42-.07,1.79,1.79,0,0,0-1,1,1.81,1.81,0,0,0-.08,1.44l5.18,15a1.86,1.86,0,0,0,1.75,1.29,1.88,1.88,0,0,0,1.76-1.28l3.44-10L166,38.32a1.83,1.83,0,0,0,1.76,1.28,1.81,1.81,0,0,0,1.74-1.24l5.2-15a1.85,1.85,0,0,0-.08-1.44"/><path class="cls-1" d="M96.23,32.15H92.1l2-6Zm.49-10s-.48-1.29-2.58-1.29-2.57,1.32-2.57,1.32L86.25,37.45a1.44,1.44,0,0,0,.21,1.22,1.89,1.89,0,0,0,1.22.84,2.5,2.5,0,0,0,.54.07,1.74,1.74,0,0,0,.84-.21,1.64,1.64,0,0,0,.84-.92l1-3h6.43l1,3a1.48,1.48,0,0,0,.81.92,1.92,1.92,0,0,0,1.41.14,1.89,1.89,0,0,0,1.21-.84,1.56,1.56,0,0,0,.19-1.23Z"/></g></g></svg>