<?xml version="1.0" encoding="UTF-8"?><svg id="Layer_2" xmlns="http://www.w3.org/2000/svg" viewBox="0 0 274.79 60"><defs><style>.cls-1{fill:#e30427;}.cls-2{fill:#6b6a6a;}</style></defs><g id="Layer_1-2"><g><g><path class="cls-1" d="m5.4,0C2.42,0,0,2.42,0,5.4h0c0,2.28,1.45,4.32,3.6,5.08v13.52c0,.99.81,1.8,1.8,1.8.19,0,.37-.03.55-.09l13.77-4.44c1.02,1.34,2.6,2.12,4.28,2.13,2.98,0,5.4-2.42,5.4-5.4h0c0-2.98-2.42-5.4-5.4-5.4-2.92,0-5.31,2.33-5.39,5.25l-11.41,3.68v-11.05c2.15-.76,3.59-2.79,3.6-5.08C10.8,2.42,8.38,0,5.4,0h0s0,0,0,0Z"/><path class="cls-1" d="m42.6,60c2.98,0,5.4-2.42,5.4-5.4h0c0-2.28-1.45-4.32-3.6-5.08v-13.52c0-.99-.81-1.8-1.8-1.8-.19,0-.37.03-.55.09l-13.77,4.44c-1.02-1.34-2.6-2.12-4.28-2.13-2.98,0-5.4,2.42-5.4,5.4h0c0,2.98,2.42,5.4,5.4,5.4h0c2.92,0,5.31-2.33,5.39-5.25l11.41-3.68v11.05c-2.15.76-3.59,2.79-3.6,5.08,0,2.98,2.42,5.4,5.4,5.4h0Z"/><path class="cls-2" d="m42.6,0c-2.98,0-5.4,2.42-5.4,5.4h0c0,2.29,1.44,4.33,3.6,5.09v12.2L4.85,34.29c-.74.24-1.25.93-1.24,1.71v13.51C1.44,50.27,0,52.31,0,54.6c0,2.98,2.42,5.4,5.4,5.4h0c2.98,0,5.4-2.42,5.4-5.4h0c0-2.29-1.44-4.33-3.6-5.09v-12.2l35.95-11.6c.74-.24,1.25-.93,1.25-1.71v-13.52c2.15-.76,3.6-2.8,3.6-5.09C48,2.42,45.58,0,42.6,0h0s0,0,0,0Z"/></g><g><path class="cls-1" d="m65.52,39.17c-.35-.32-.52-.72-.52-1.21v-15.51c0-.51.17-.92.52-1.23.35-.31.82-.46,1.42-.46.47,0,.87.16,1.19.48s.48.72.48,1.21v5.95h8.9v-5.95c0-.47.18-.87.55-1.2s.8-.49,1.31-.49c.47,0,.87.16,1.2.48s.49.72.49,1.21v15.51c0,.47-.16.87-.49,1.2-.33.33-.73.49-1.2.49s-.92-.16-1.3-.49c-.37-.33-.56-.73-.56-1.2v-5.98h-8.9v5.98c0,.47-.16.87-.48,1.2-.32.33-.71.49-1.19.49-.6,0-1.07-.16-1.42-.48Z"/><path class="cls-1" d="m89.76,39.7c-.29,0-.51-.02-.66-.05-.33-.18-.59-.42-.79-.72-.2-.3-.3-.63-.3-1,0-.31.07-.61.22-.9l7.84-15.32c.18-.36.43-.64.74-.83.31-.19.64-.29.98-.29s.67.1.97.29c.3.19.53.47.7.83l7.7,15.32c.15.27.22.56.22.87,0,.51-.2.94-.59,1.28-.39.35-.83.52-1.32.52-.31,0-.59-.08-.85-.25-.26-.16-.46-.41-.63-.74l-1.2-2.4h-10.07l-1.17,2.4c-.31.66-.9.98-1.77.98Zm8-13.73l-3.36,6.74h6.44l-3.09-6.74Z"/><path class="cls-1" d="m117.35,39.21c-.37.33-.81.49-1.3.49s-.91-.15-1.26-.46c-.35-.31-.52-.75-.52-1.31v-15.51c0-.47.16-.87.48-1.19s.71-.48,1.16-.48h7.26c1.27,0,2.38.29,3.32.87.94.58,1.65,1.35,2.13,2.29.48.95.72,1.95.72,3,0,1.18-.31,2.27-.91,3.25-.61.98-1.51,1.71-2.69,2.18l3.63,4.42c.25.38.38.77.38,1.17,0,.49-.18.91-.53,1.24-.35.34-.78.51-1.27.51-.64,0-1.18-.29-1.64-.87l-4.12-5.9h-4.29v4.94c0,.56-.19,1.01-.56,1.34Zm5.83-9.42c.86,0,1.53-.29,2.02-.87.49-.58.74-1.27.74-2.05s-.24-1.42-.72-1.98c-.48-.55-1.16-.83-2.03-.83h-5.27v5.73h5.27Z"/><path class="cls-1" d="m137.94,39.22c-.37-.28-.56-.71-.56-1.27v-15.51c0-.47.2-.87.59-1.2.39-.33.82-.49,1.3-.49h6.25c1.98,0,3.68.45,5.08,1.34,1.4.89,2.45,2.06,3.15,3.49.7,1.44,1.05,2.98,1.05,4.61s-.35,3.18-1.04,4.61c-.69,1.44-1.72,2.6-3.09,3.49-1.37.89-3,1.34-4.91,1.34h-6.5c-.51,0-.95-.14-1.32-.42Zm3.04-2.91h4.53c1.18,0,2.2-.3,3.06-.89.86-.59,1.5-1.36,1.94-2.31.44-.95.66-1.96.66-3.03s-.21-2.02-.64-2.93c-.43-.92-1.07-1.66-1.92-2.23-.86-.56-1.88-.85-3.09-.85h-4.53v12.23Z"/><path class="cls-1" d="m181.72,33.12l4.07-11.25c.16-.4.39-.71.68-.91.29-.21.62-.31.98-.31.47,0,.89.16,1.24.48s.53.72.53,1.21c0,.22-.05.46-.14.74l-5.41,14.66c-.24.76-.49,1.29-.76,1.58-.27.29-.65.44-1.12.44-.44,0-.77-.11-1-.34-.23-.23-.5-.64-.83-1.24l-4.75-10.78-4.53,10.62c-.27.62-.55,1.07-.83,1.37-.28.29-.65.44-1.11.44s-.82-.15-1.11-.45c-.28-.3-.54-.77-.78-1.41l-5.3-14.88c-.09-.27-.14-.51-.14-.71,0-.53.18-.95.55-1.26.36-.31.79-.46,1.28-.46.36,0,.7.1,1.01.31s.53.51.66.91l4.04,11.25,4.83-11.25c.16-.4.39-.71.67-.94.28-.23.58-.34.89-.34s.6.1.87.3c.27.2.49.5.66.9l4.83,11.33Z"/><path class="cls-1" d="m195.31,39.7c-.29,0-.51-.02-.66-.05-.33-.18-.59-.42-.79-.72-.2-.3-.3-.63-.3-1,0-.31.07-.61.22-.9l7.84-15.32c.18-.36.43-.64.74-.83.31-.19.64-.29.98-.29s.67.1.97.29c.3.19.53.47.7.83l7.7,15.32c.15.27.22.56.22.87,0,.51-.2.94-.59,1.28-.39.35-.83.52-1.32.52-.31,0-.59-.08-.85-.25-.26-.16-.46-.41-.63-.74l-1.2-2.4h-10.07l-1.17,2.4c-.31.66-.9.98-1.77.98Zm8-13.73l-3.36,6.74h6.44l-3.09-6.74Z"/><path class="cls-1" d="m222.9,39.21c-.37.33-.81.49-1.3.49s-.91-.15-1.26-.46c-.35-.31-.52-.75-.52-1.31v-15.51c0-.47.16-.87.48-1.19s.71-.48,1.16-.48h7.26c1.27,0,2.38.29,3.32.87.94.58,1.65,1.35,2.13,2.29.48.95.72,1.95.72,3,0,1.18-.31,2.27-.91,3.25-.61.98-1.51,1.71-2.69,2.18l3.63,4.42c.25.38.38.77.38,1.17,0,.49-.18.91-.53,1.24-.35.34-.78.51-1.27.51-.64,0-1.18-.29-1.64-.87l-4.12-5.9h-4.29v4.94c0,.56-.19,1.01-.56,1.34Zm5.83-9.42c.86,0,1.53-.29,2.02-.87.49-.58.74-1.27.74-2.05s-.24-1.42-.72-1.98c-.48-.55-1.16-.83-2.03-.83h-5.27v5.73h5.27Z"/><path class="cls-1" d="m243.12,22.39c0-.53.18-.95.55-1.26.36-.31.79-.46,1.28-.46s.91.15,1.26.45c.35.3.52.72.52,1.27v15.59c0,.55-.18.97-.53,1.27s-.79.45-1.3.45c-.47,0-.89-.15-1.24-.45-.35-.3-.53-.72-.53-1.27v-15.59Z"/><path class="cls-1" d="m273.38,35.4c-.94,1.48-2.15,2.61-3.64,3.37-1.49.76-3.07,1.15-4.72,1.15-1.75.07-3.41-.26-4.98-1s-2.85-1.86-3.84-3.37c-.98-1.51-1.47-3.33-1.47-5.46s.49-3.95,1.47-5.46,2.26-2.65,3.84-3.41c1.57-.76,3.24-1.15,4.98-1.15,1.67.09,3.26.53,4.75,1.31,1.49.78,2.7,1.92,3.63,3.4.93,1.48,1.39,3.25,1.39,5.31s-.47,3.83-1.41,5.31Zm-3.11-8.83c-.63-.98-1.44-1.72-2.43-2.21-.99-.49-2.03-.74-3.13-.74s-2.08.25-3.06.74c-.98.49-1.78,1.23-2.4,2.21-.62.98-.93,2.16-.93,3.52s.31,2.53.93,3.51c.62.97,1.42,1.71,2.4,2.21.98.5,2,.75,3.06.75s2.13-.25,3.13-.75c.99-.5,1.8-1.24,2.43-2.21.63-.97.94-2.14.94-3.51s-.31-2.54-.94-3.52Z"/></g></g></g></svg>