<?xml version="1.0" encoding="UTF-8"?>
<svg id="Layer_2" data-name="Layer 2" xmlns="http://www.w3.org/2000/svg" viewBox="0 0 232.69773 60.00002">
  <defs>
    <style>
      .cls-1 {
        isolation: isolate;
      }

      .cls-2 {
        fill: #6b6a6a;
      }

      .cls-3 {
        fill: #e30427;
      }
    </style>
  </defs>
  <g id="Layer_1-2" data-name="Layer 1">
    <g>
      <g>
        <g>
          <path class="cls-3" d="M65.83911,26.26042c-.24756-.22775-.37109-.51779-.37109-.86913v-11.09238c0-.36406.12354-.65712.37109-.87851.24707-.22139.58569-.33224,1.01538-.33224.33838,0,.62134.11421.84937.34196.22778.22775.34155.51746.34155.8688v4.25723h6.36621v-4.25723c0-.33827.12988-.62463.39062-.85909s.57275-.35167.93774-.35167c.33838,0,.62427.11421.85864.34196s.35156.51746.35156.8688v11.09238c0,.33861-.11719.62497-.35156.85909-.23438.23445-.52051.35167-.85864.35167-.35156,0-.66113-.11722-.92773-.35167-.26733-.23412-.40063-.52048-.40063-.85909v-4.27666h-6.36621v4.27666c0,.33861-.11377.62497-.34155.85909-.22803.23445-.51099.35167-.84937.35167-.42969,0-.76831-.11388-1.01538-.34161v-.00005Z"/>
          <path class="cls-3" d="M83.18042,26.64124c-.20825,0-.3645-.0134-.46899-.03918-.23389-.12994-.42261-.30276-.56592-.51746-.14331-.21503-.21509-.45215-.21509-.71272,0-.22139.05225-.43607.15601-.64473l5.60522-10.95538c.12988-.26024.30542-.45885.5271-.5955.22095-.13664.45557-.20531.70264-.20531s.47827.06866.69336.20531.3811.33527.49829.5955l5.50684,10.95538c.10376.1956.15601.40392.15601.62497,0,.36473-.13989.67085-.41992.91803-.28003.24751-.59546.37109-.94727.37109-.22095,0-.42261-.05861-.60498-.17584-.18286-.11722-.33228-.29306-.44946-.52718l-.85938-1.71883h-7.20557l-.84009,1.71883c-.22168.46857-.64429.703-1.26929.703l.00049.00002ZM88.9021,16.81821l-2.4021,4.82359h4.60864l-2.20654-4.82359Z"/>
          <path class="cls-3" d="M102.91333,26.28955c-.2666.23445-.57617.35167-.92773.35167-.35107,0-.65112-.11053-.89819-.33224-.24707-.22105-.37036-.53354-.37036-.93712v-11.09238c0-.33827.11328-.62161.34155-.84937.22778-.22775.50439-.34196.82983-.34196h5.19458c.91089,0,1.70215.20866,2.37256.62497.67041.41698,1.17822.96358,1.52319,1.64046.34497.67722.51709,1.3933.51709,2.14821,0,.84636-.21777,1.6207-.65381,2.32372-.43677.703-1.07788,1.22415-1.92383,1.56242l2.59766,3.1637c.18164.2733.27319.5533.27319.83966,0,.35133-.1272.64774-.3811.88857-.25391.24115-.55664.36137-.90771.36137-.45605,0-.84668-.20831-1.17212-.62497l-2.94873-4.21838h-3.06592v3.53481c0,.40358-.13403.72243-.40063.95688h.00049ZM107.08325,19.55222c.61157,0,1.09326-.20799,1.44482-.62497.35156-.41631.5271-.90463.5271-1.46463,0-.5466-.17285-1.01851-.51709-1.41573-.3457-.3969-.82983-.59583-1.45483-.59583h-3.76929v4.10115h3.76929Z"/>
          <path class="cls-3" d="M117.63794,26.29927c-.2666-.20161-.3999-.50439-.3999-.90797v-11.09238c0-.33827.1394-.62463.41943-.85909s.58887-.35167.92773-.35167h4.47192c1.41943,0,2.62988.31918,3.63257.95688,1.0022.63803,1.75439,1.47131,2.25537,2.49988.50098,1.02855.7522,2.12845.7522,3.30035,0,1.17157-.2478,2.2718-.74219,3.30035-.49512,1.02855-1.23047,1.86185-2.20703,2.49954-.97607.63803-2.14819.95688-3.51465.95688h-4.64819c-.3645,0-.68066-.10081-.94727-.30276v-.00002ZM119.81567,24.21939h3.24146c.84595,0,1.57544-.21133,2.18774-.63435.61157-.423,1.07373-.9733,1.38599-1.65018.31274-.67688.46899-1.39964.46899-2.16797,0-.74187-.15332-1.44151-.45874-2.0993-.30615-.65712-.76489-1.18764-1.37646-1.59155-.6123-.40324-1.34766-.60521-2.20703-.60521h-3.24146v8.74857h-.00049Z"/>
          <path class="cls-3" d="M148.95215,21.93486l2.90991-8.0459c.11719-.28636.28003-.50439.48828-.65411.20776-.1497.44214-.22473.70264-.22473.33838,0,.63501.11421.88892.34161.25391.22807.38037.51779.38037.86913,0,.1564-.03271.33191-.0979.52718l-3.86646,10.48683c-.16943.54694-.35156.92473-.54663,1.13272-.19556.20866-.46216.31248-.80103.31248-.31226,0-.55005-.08105-.71265-.24416-.16284-.16245-.36108-.45885-.59546-.88857l-3.39819-7.71365-3.24146,7.59677c-.19556.44244-.3938.76833-.59546.9763-.20239.20799-.46558.31248-.79102.31248s-.58936-.10751-.79102-.3222c-.20166-.21503-.38721-.54996-.55664-1.00578l-3.78809-10.64323c-.06567-.19527-.0979-.36406-.0979-.50775,0-.37746.12988-.67654.39062-.89827.26001-.22105.56592-.33191.91772-.33191.2605,0,.50098.07503.72266.22473.22095.1497.3772.36775.46826.65411l2.89038,8.0459,3.4563-8.0459c.11719-.28636.27661-.51076.479-.67387.20166-.16245.4126-.24416.63428-.24416.22095,0,.42993.07201.625.21503.19556.14336.35156.35803.46899.64439l3.4563,8.10451.00024.00002Z"/>
          <path class="cls-3" d="M158.67773,26.64124c-.20898,0-.36499-.0134-.46899-.03918-.23438-.12994-.42334-.30276-.56665-.51746-.14331-.21503-.21436-.45215-.21436-.71272,0-.22139.05151-.43607.15601-.64473l5.60474-10.95538c.12988-.26024.30542-.45885.5271-.5955.22095-.13664.45557-.20531.70337-.20531.24707,0,.47827.06866.69336.20531.21436.13664.38037.33527.4978.5955l5.50684,10.95538c.10449.1956.15674.40392.15674.62497,0,.36473-.13989.67085-.41992.91803-.28003.24751-.59546.37109-.94727.37109-.22168,0-.42334-.05861-.60547-.17584s-.33154-.29306-.44873-.52718l-.85938-1.71883h-7.2063l-.83936,1.71883c-.22168.46857-.64502.703-1.26929.703l-.00024.00002ZM164.39966,16.81821l-2.4021,4.82359h4.60864l-2.20654-4.82359Z"/>
          <path class="cls-3" d="M178.41089,26.28955c-.26733.23445-.57617.35167-.92773.35167s-.65112-.11053-.89819-.33224c-.2478-.22105-.37109-.53354-.37109-.93712v-11.09238c0-.33827.11377-.62161.34155-.84937s.50439-.34196.82983-.34196h5.19458c.91089,0,1.70215.20866,2.37256.62497.67041.41698,1.17822.96358,1.52319,1.64046.34497.67722.51782,1.3933.51782,2.14821,0,.84636-.21826,1.6207-.65454,2.32372s-1.07715,1.22415-1.9231,1.56242l2.59692,3.1637c.18213.2733.27319.5533.27319.83966,0,.35133-.12671.64774-.38037.88857-.25391.24115-.55664.36137-.9082.36137-.45605,0-.84668-.20831-1.17163-.62497l-2.94873-4.21838h-3.06665v3.53481c0,.40358-.1333.72243-.3999.95688h.00049ZM182.58008,19.55222c.61157,0,1.09375-.20799,1.44482-.62497.35156-.41631.52783-.90463.52783-1.46463,0-.5466-.17285-1.01851-.51782-1.41573-.34497-.3969-.82983-.59583-1.45483-.59583h-3.76929v4.10115h3.76929Z"/>
          <path class="cls-3" d="M192.87158,14.26007c0-.37746.12988-.67688.39062-.89827s.56665-.33224.91772-.33224c.35156,0,.65112.10751.89819.3222.24707.21503.37109.51779.37109.90833v11.15065c0,.39052-.12671.69328-.38037.90833-.25391.21469-.56323.3222-.92773.3222-.33887,0-.63428-.10751-.88818-.3222-.25391-.21503-.3811-.51779-.3811-.90833v-11.15065l-.00024-.00002Z"/>
          <path class="cls-3" d="M214.51904,23.56528c-.67114,1.06139-1.54004,1.8652-2.60718,2.41179-1.06763.54694-2.19434.82024-3.37866.82024-1.25.05191-2.43823-.18555-3.56372-.71272-1.12671-.52718-2.04102-1.33099-2.74438-2.41179-.70264-1.08047-1.05444-2.38266-1.05444-3.90588s.35156-2.82475,1.05444-3.90556c.70337-1.08047,1.61768-1.89433,2.74438-2.44093,1.12524-.54694,2.31372-.82024,3.56372-.82024,1.19775.06531,2.33032.37746,3.39819.93712,1.06714.56,1.93311,1.37051,2.59692,2.43155.66455,1.06104.99609,2.32706.99609,3.79805,0,1.47166-.33496,2.73734-1.00537,3.79839ZM212.29248,17.24792c-.44873-.703-1.02832-1.23051-1.73755-1.58185-.70996-.35167-1.45483-.52718-2.23657-.52718-.75488,0-1.48364.17551-2.18701.52718-.70264.35133-1.27612.87885-1.71826,1.58185-.44287.703-.66455,1.54266-.66455,2.51897,0,.97664.22168,1.81328.66455,2.50958.44214.69664,1.01538,1.22382,1.71826,1.58185.70337.35803,1.43213.53688,2.18701.53688.78174,0,1.52661-.17885,2.23657-.53688.70947-.35803,1.28882-.88521,1.73755-1.58185.44946-.6963.67383-1.53294.67383-2.50958,0-.9763-.22437-1.81596-.67383-2.51897Z"/>
        </g>
        <g class="cls-1">
          <path class="cls-2" d="M65.68993,34.53028c0-.65489.51603-1.36889,1.34919-1.36889h4.58142c2.57828,0,4.89948,1.72636,4.89948,5.03834,0,3.13372-2.3212,4.87978-4.89948,4.87978h-3.31198v2.61769c0,.87256-.55544,1.36889-1.26944,1.36889-.65489,0-1.34919-.49633-1.34919-1.36889v-11.16692ZM68.30856,35.66086v4.93889h3.31198c1.32855,0,2.38031-1.16998,2.38031-2.40001,0-1.38859-1.05177-2.53887-2.38031-2.53887h-3.31198Z"/>
          <path class="cls-2" d="M81.9984,34.53028c0-.65489.55544-1.20939,1.24973-1.20939.63425,0,1.16998.5545,1.16998,1.20939v9.93783h5.39487c1.94403,0,1.98344,2.59798,0,2.59798h-6.56486c-.6943,0-1.24973-.49633-1.24973-1.21033v-11.32548Z"/>
          <path class="cls-2" d="M96.421,47.06609c-.63519-.35747-1.03112-1.07147-.63519-1.90462l5.69323-11.12657c.53573-1.05177,1.96373-1.09117,2.45912,0l5.59378,11.12657c.81345,1.54716-1.58656,2.77719-2.30056,1.23003l-.8735-1.74512h-7.3192l-.85286,1.74512c-.31712.67459-1.05083.81345-1.76483.67459ZM104.9496,42.02774l-2.24145-4.89854-2.43942,4.89854h4.68087Z"/>
          <path class="cls-2" d="M112.64972,35.24428c-.95231-1.26944,1.18969-2.8757,2.22175-1.32855l3.47055,5.17626,3.51089-5.17626c1.05177-1.44864,3.25287,0,2.22175,1.32855l-4.48291,6.48604v4.10573c0,1.74606-2.61769,1.70572-2.61769-.0197v-4.08603l-4.32434-6.48604Z"/>
          <path class="cls-2" d="M140.58109,45.53863c-1.4083,1.16998-3.13372,1.66631-4.87978,1.66631-4.16484,0-7.12029-2.38031-7.12029-7.10059,0-4.00722,3.11401-7.12123,7.29856-7.12123,1.5678,0,3.29322.53573,4.52325,1.74606,1.20939,1.18969-.53573,2.95451-1.72636,1.90369-.7337-.714-1.76483-1.24973-2.79689-1.24973-2.40001,0-4.72028,1.92433-4.72028,4.72122,0,2.93481,1.94403,4.72028,4.54201,4.72028,1.21033,0,2.24145-.35653,2.97516-.89227v-2.44036h-2.97516c-1.76483,0-1.58656-2.41972,0-2.41972h3.96687c.73464,0,1.4083.55544,1.4083,1.17092v4.22489c0,.35653-.15856.69336-.49539,1.07053Z"/>
          <path class="cls-2" d="M149.96723,45.77695c0,1.72542-2.63833,1.78547-2.63833.03941v-11.26637c0-.6943.53573-1.20939,1.18969-1.20939h5.27666c5.0374,0,6.06947,6.74312,1.86428,8.42914l2.63833,3.21347c1.03112,1.52745-1.03206,2.99486-2.22175,1.48805l-2.99486-4.28494h-3.11401v3.59064ZM149.96723,39.90545h3.82801c2.57828,0,2.73684-4.16484,0-4.16484h-3.82801v4.16484Z"/>
          <path class="cls-2" d="M171.09449,47.26406c-3.66945.1595-7.47776-2.28086-7.47776-7.14,0-4.87978,3.80831-7.27979,7.47776-7.27979,3.47148.17827,7.10153,2.57828,7.10153,7.27979,0,4.70058-3.63005,7.14-7.10153,7.14ZM170.87682,35.42254c-2.22175,0-4.64147,1.5678-4.64147,4.70151,0,3.11401,2.41972,4.70058,4.64147,4.70058,2.28086,0,4.72028-1.58656,4.72028-4.70058,0-3.13372-2.43942-4.70151-4.72028-4.70151Z"/>
          <path class="cls-2" d="M193.33451,34.64943c0-1.76577,2.59798-1.90462,2.59798,0v7.18034c0,7.41772-11.95973,7.41772-11.95973,0v-7.18034c0-1.78547,2.59798-1.86428,2.59798,0v7.18034c0,3.90776,6.76376,4.14514,6.76376,0v-7.18034Z"/>
          <path class="cls-2" d="M202.08546,34.72918c0-.71494.15856-1.4083,1.18969-1.4083.714,0,.8735.17827,1.4083.69336l6.5658,8.2124v-7.69637c0-.65489.57514-1.36889,1.24973-1.36889.714,0,1.4083.714,1.4083,1.36889v11.16692c0,.87256-.53573,1.21033-1.05177,1.36889-.6943,0-1.03112-.15856-1.60626-.6943l-6.5658-8.33062v7.65603c0,.87256-.5348,1.36889-1.2488,1.36889-.71494,0-1.34919-.49633-1.34919-1.36889v-10.96801Z"/>
          <path class="cls-2" d="M221.40943,47.06609c-.65489,0-1.36889-.35747-1.36889-1.23003v-11.26637c0-.714.714-1.22909,1.36889-1.22909h4.54201c9.06433,0,8.86636,13.7255.17827,13.7255h-4.72028ZM222.65822,35.76031v8.88606h3.29322c5.35547,0,5.59284-8.88606,0-8.88606h-3.29322Z"/>
        </g>
      </g>
      <g>
        <path class="cls-3" d="M5.3999.00003C2.41772.00003,0,2.41763,0,5.39992h0c.00562,2.28346,1.44702,4.31651,3.6001,5.07765v13.52217c0,.99422.80591,1.80025,1.80005,1.80032.18774.00002.37451-.02936.55322-.08705l13.76855-4.44131c1.01758,1.33614,2.59888,2.12271,4.27856,2.12811,2.98218,0,5.3999-2.4176,5.3999-5.39989v-.00023c0-2.98227-2.41772-5.39989-5.3999-5.39989-2.91943.00446-5.30664,2.32838-5.3894,5.2466l-11.4104,3.68095v-11.04968c2.15283-.76112,3.59424-2.79417,3.6001-5.07764C10.80078,2.41776,8.38306.00015,5.40088.00015h0l-.00049-.00012h-.00049Z"/>
        <path class="cls-3" d="M42.59912,59.99928c2.98218,0,5.3999-2.4176,5.3999-5.39987h0c-.00562-2.28348-1.44702-4.31653-3.6001-5.07764v-13.52217c0-.99422-.80591-1.80025-1.80005-1.80032-.18774-.00002-.37451.02936-.55322.08705l-13.76855,4.44131c-1.01758-1.33614-2.59888-2.12271-4.27856-2.12811-2.98218-.00014-5.3999,2.41739-5.40015,5.39966v.00024c-.00024,2.98227,2.41748,5.39999,5.39966,5.40012h.00049c2.91943-.00446,5.30664-2.3284,5.3894-5.24658l11.4104-3.68095v11.04967c-2.15283.76111-3.59424,2.79416-3.6001,5.07764,0,2.98227,2.41772,5.3999,5.3999,5.3999h0l.00049.00012.00049-.00006Z"/>
        <path class="cls-2" d="M42.59912.00003C39.61694.00003,37.19922,2.41763,37.19922,5.39992h0c.00171,2.28728,1.44458,4.32526,3.60107,5.08717v12.20393L4.8457,34.28563c-.74292.24104-1.24536.93353-1.24463,1.71446v13.51286C1.44434,50.27486.00171,52.31285,0,54.60011c0,2.98227,2.41772,5.3999,5.3999,5.3999h0c2.98218,0,5.3999-2.4176,5.3999-5.3999h0c-.00024-2.28723-1.44165-4.32611-3.59766-5.08945v-12.19917l35.9502-11.60028c.74292-.23888,1.24756-.92931,1.24927-1.70976v-13.51514c2.15479-.76292,3.59595-2.80006,3.59766-5.08604C47.99927,2.41798,45.58154.00038,42.59937.00038h0l-.00024-.00038v.00003Z"/>
      </g>
    </g>
  </g>
</svg>